PathFileType	4	(X/Y/Z)	/Users/itak/Documents/Research/Walk-IL/dataset/trc/00240_00009.trc
DataRate	CameraRate	NumFrames	NumMarkers	Units	OrigDataRate	OrigDataStartFrame	OrigNumFrames
100.000000	100.000000	4	54	mm	100.000000	645	861
Frame#	Time	RPSI			LPSI			L3			STRN			T10			C7			CLAV			RBAK			LBAK			LSHO			LUPA			LAEL			LAOL			LWTS			LWPS			LFRA			LIFD			LHPS			LHTS			RSHO			RUPA			RAEL			RAOL			RWTS			RWPS			RFRA			RIFD			RHTS			RHPS			RBHD			LFHD			RFHD			LBHD			LHIP			RHIP			RASI			LASI			LKNE			LTHI			LANK			LTIP			LTOE			LMT1			LHEE			RKNE			RTHI			RANK			RTIP			RTOE			RMT1			RMT5			RHEE			LMT5			*53			
		X1	Y1	Z1	X2	Y2	Z2	X3	Y3	Z3	X4	Y4	Z4	X5	Y5	Z5	X6	Y6	Z6	X7	Y7	Z7	X8	Y8	Z8	X9	Y9	Z9	X10	Y10	Z10	X11	Y11	Z11	X12	Y12	Z12	X13	Y13	Z13	X14	Y14	Z14	X15	Y15	Z15	X16	Y16	Z16	X17	Y17	Z17	X18	Y18	Z18	X19	Y19	Z19	X20	Y20	Z20	X21	Y21	Z21	X22	Y22	Z22	X23	Y23	Z23	X24	Y24	Z24	X25	Y25	Z25	X26	Y26	Z26	X27	Y27	Z27	X28	Y28	Z28	X29	Y29	Z29	X30	Y30	Z30	X31	Y31	Z31	X32	Y32	Z32	X33	Y33	Z33	X34	Y34	Z34	X35	Y35	Z35	X36	Y36	Z36	X37	Y37	Z37	X38	Y38	Z38	X39	Y39	Z39	X40	Y40	Z40	X41	Y41	Z41	X42	Y42	Z42	X43	Y43	Z43	X44	Y44	Z44	X45	Y45	Z45	X46	Y46	Z46	X47	Y47	Z47	X48	Y48	Z48	X49	Y49	Z49	X50	Y50	Z50	X51	Y51	Z51	X52	Y52	Z52	X53	Y53	Z53	X54	Y54	Z54	

646	6.45	653.3524169921875	1031.015014648438	162.2631225585938	758.2593994140625	1040.763793945312	219.9094543457031	725.0156860351562	1124.4921875	196.4754028320312	614.8124389648438	1303.889282226562	425.2777404785156	728.1362915039062	1250.048950195312	196.1953887939453	715.6135864257812	1509.92138671875	265.4159240722656	632.4939575195312	1421.96142578125	406.6574401855469	678.1766357421875	1378.671508789062	156.6545715332031	820.3533935546875	1463.482055664062	298.3162536621094	825.22705078125	1459.915649414062	402.6730346679688	905.4284057617188	1342.669799804688	421.05615234375	920.7401123046875	1137.49365234375	472.0394897460938	911.2552490234375	1107.810668945312	390.5440368652344	811.5859375	928.7905883789062	571.5737915039062	891.6932373046875	908.799072265625	589.38037109375	915.785888671875	1037.66357421875	518.2003784179688	800.4569702148438	743.3711547851562	623.4144287109375	873.258056640625	828.010986328125	623.833251953125	806.760986328125	841.4813232421875	636.0921020507812	536.5269165039062	1481.540771484375	236.4958038330078	482.881591796875	1423.0380859375	183.7879486083984	442.5221557617188	1146.411010742188	130.3540954589844	536.9889526367188	1133.793212890625	140.97119140625	399.4527587890625	952.1554565429688	292.2982482910156	366.8670654296875	930.14892578125	216.9343719482422	413.3637390136719	1080.505981445312	152.2500915527344	374.5796203613281	764.0588989257812	334.5995178222656	353.9179382324219	840.5527954101562	334.7430114746094	336.09619140625	831.735107421875	264.5836791992188	660.909912109375	1674.3828125	300.2654724121094	617.8294067382812	1684.25048828125	522.6054077148438	536.4389038085938	1687.120849609375	463.4569091796875	741.3925170898438	1670.08203125	414.9588928222656	833.6575317382812	987.8989868164062	378.9349975585938	512.3739624023438	992.6326904296875	198.3428649902344	501.079345703125	1043.093383789062	299.8881225585938	742.6036987304688	1028.136596679688	441.8233032226562	749.9376220703125	511.5676879882812	454.4512939453125	786.93896484375	652.7081909179688	442.0747680664062	772.5724487304688	26.27376556396484	399.4982604980469	771.7111206054688	280.8154602050781	428.5557556152344	603.650390625	41.0509033203125	544.0175170898438	607.3433837890625	39.63659286499023	464.1435852050781	763.838623046875	36.80953979492188	319.6019287109375	475.6761474609375	509.0691223144531	327.8481750488281	467.2010803222656	775.9903564453125	276.3966979980469	665.022705078125	136.4175109863281	71.61313629150391	509.9383544921875	397.9314880371094	305.1547241210938	606.4652099609375	48.2529411315918	249.4100799560547	670.6162109375	66.79473876953125	228.1925506591797	594.9334106445312	79.49869537353516	136.8349456787109	739.77294921875	169.8884124755859	56.38262939453125	713.4235229492188	28.84023094177246	514.2067260742188	nan	nan	nan	
647	6.46	652.3875732421875	1031.255737304688	166.9564514160156	756.9624633789062	1041.018188476562	225.2636871337891	723.9075927734375	1124.804443359375	201.8585968017578	611.9321899414062	1303.962524414062	429.922607421875	727.0997314453125	1250.3447265625	201.8970489501953	713.9071044921875	1510.215087890625	271.2203979492188	629.5936889648438	1422.160766601562	411.7832946777344	677.532470703125	1378.981567382812	162.0781402587891	818.4515380859375	1463.862426757812	305.0916137695312	822.2589721679688	1460.410400390625	409.4747314453125	902.2483520507812	1343.287353515625	429.1933898925781	916.5337524414062	1138.384643554688	481.6520080566406	908.32373046875	1108.134643554688	400.2749938964844	804.1038818359375	931.58984375	581.4400024414062	883.8086547851562	911.1940307617188	600.9185180664062	910.1541748046875	1039.065551757812	528.75244140625	790.72119140625	746.9070434570312	635.283447265625	864.1596069335938	830.970458984375	635.974609375	797.549072265625	845.129638671875	646.9359130859375	535.1224365234375	1481.696044921875	240.7697906494141	481.9718017578125	1423.145263671875	187.5925445556641	442.2140197753906	1146.434448242188	133.9093475341797	536.271484375	1133.547485351562	145.6973571777344	397.810546875	953.438720703125	296.8711853027344	365.8832092285156	930.7572021484375	221.4317016601562	412.8992004394531	1080.629028320312	155.9274444580078	372.4870910644531	765.7799072265625	340.7547302246094	351.806884765625	842.2705688476562	339.9421997070312	334.6612854003906	832.7860717773438	269.7208862304688	658.5993041992188	1674.630737304688	305.8045349121094	613.650390625	1684.216186523438	527.781005859375	532.741943359375	1687.034790039062	468.0044250488281	738.1168212890625	1670.3603515625	421.1470031738281	831.6831665039062	987.9959106445312	384.6269836425781	511.2353820800781	993.1422119140625	202.3799285888672	499.5624389648438	1043.280639648438	303.9204406738281	740.3320922851562	1028.185424804688	447.2227172851562	749.230224609375	511.0164184570312	456.4718933105469	785.6209106445312	652.4524536132812	445.3788146972656	772.3720703125	26.43923568725586	399.4503173828125	771.2332763671875	280.5189514160156	429.4818115234375	603.3181762695312	40.46326446533203	544.180908203125	607.1544799804688	39.29446029663086	464.2060852050781	763.7147827148438	37.01020050048828	319.4371948242188	471.13720703125	510.5190124511719	335.9902038574219	464.3715209960938	777.1874389648438	281.2840881347656	658.3021240234375	127.9964904785156	91.22760009765625	504.5965270996094	398.2783813476562	315.6624145507812	596.1159057617188	48.83946228027344	271.9334716796875	660.9889526367188	65.06784057617188	250.8227081298828	586.618408203125	75.20313262939453	158.0150756835938	733.7493286132812	159.6312561035156	75.45639801025391	713.4038696289062	28.89297485351562	514.224365234375	nan	nan	nan	
648	6.47	651.4281005859375	1031.445434570312	171.63623046875	755.66748046875	1041.243530273438	230.6072692871094	722.7756958007812	1125.06103515625	207.2247924804688	608.9393920898438	1303.987426757812	434.4211120605469	725.998046875	1250.583374023438	207.5485992431641	712.1080932617188	1510.447143554688	276.9540405273438	626.6746826171875	1422.305786132812	416.8911743164062	676.7853393554688	1379.226684570312	167.4475555419922	816.4448852539062	1464.180297851562	311.7702331542969	819.2192993164062	1460.835327148438	416.1697692871094	899.000732421875	1343.829223632812	437.149169921875	912.3321533203125	1139.20068359375	490.9727478027344	905.3148803710938	1108.40283203125	409.7367248535156	796.6386108398438	934.334716796875	590.9553833007812	875.9454345703125	913.53466796875	612.0463256835938	904.5263061523438	1040.401123046875	538.9583740234375	780.9640502929688	750.4440307617188	646.7931518554688	855.0670776367188	833.9049072265625	647.6954345703125	788.389892578125	848.7700805664062	657.4031982421875	533.62255859375	1481.77001953125	245.0006866455078	480.9612731933594	1423.157348632812	191.3780822753906	441.7983093261719	1146.354614257812	137.4782867431641	535.4913940429688	1133.249877929688	150.3268737792969	396.2335205078125	954.47900390625	301.3030700683594	364.8999633789062	931.1796264648438	225.7986450195312	412.3654174804688	1080.634887695312	159.5837707519531	370.5298767089844	767.2161865234375	346.5958557128906	349.8175048828125	843.699951171875	344.9160766601562	333.2857055664062	833.6113891601562	274.64599609375	656.2383422851562	1674.816772460938	311.2049255371094	609.41748046875	1684.175659179688	532.8362426757812	529.0022583007812	1686.931884765625	472.4533386230469	734.7809448242188	1670.589721679688	427.2127075195312	829.6206665039062	988.070068359375	390.3549194335938	510.1113586425781	993.5514526367188	206.3417663574219	497.9891967773438	1043.381713867188	307.86474609375	737.9178466796875	1028.192749023438	452.6132507324219	748.5008544921875	510.4626159667969	458.5278015136719	784.2213745117188	652.19140625	448.7196655273438	772.1931762695312	26.60530281066895	399.4060974121094	770.7505493164062	280.2352905273438	430.3894958496094	603.0065307617188	39.95306015014648	544.3287963867188	606.998779296875	38.97855377197266	464.2847900390625	763.5991821289062	37.23572540283203	319.2659301757812	466.6455078125	511.9305114746094	343.8305969238281	461.5467529296875	778.3058471679688	285.9702758789062	651.091796875	119.5782012939453	111.1127548217773	499.1548767089844	398.6104125976562	325.8936462402344	584.8349609375	49.42725372314453	294.0618896484375	650.4152221679688	63.24466323852539	273.3140258789062	577.5737915039062	71.07534790039062	179.0203094482422	727.3265380859375	149.1590728759766	95.10331726074219	713.3805541992188	28.95645332336426	514.237060546875	nan	nan	nan	
649	6.48	650.4896850585938	1031.593383789062	176.3069610595703	754.3770141601562	1041.447631835938	235.9591217041016	721.6283569335938	1125.270629882812	212.5785827636719	605.85107421875	1303.9677734375	438.8290405273438	724.841552734375	1250.779907226562	213.1606597900391	710.2171020507812	1510.6259765625	282.6244201660156	623.7197875976562	1422.398559570312	421.9650268554688	675.9330444335938	1379.4189453125	172.7666168212891	814.3309936523438	1464.446411132812	318.3618774414062	816.1040649414062	1461.195190429688	422.7698059082031	895.6810302734375	1344.30126953125	444.9280090332031	908.1390380859375	1139.943115234375	499.9996948242188	902.2293701171875	1108.619750976562	418.9213562011719	789.2166137695312	937.0159912109375	600.1135864257812	868.122314453125	915.8084106445312	622.7522583007812	898.9107055664062	1041.666870117188	548.8108520507812	771.195556640625	753.9606323242188	657.9279174804688	846.0032958984375	836.7974853515625	658.97802734375	779.3098754882812	852.385009765625	667.4869384765625	532.0285034179688	1481.777465820312	249.1902923583984	479.8494873046875	1423.089965820312	195.1443176269531	441.2821350097656	1146.1884765625	141.0660247802734	534.6908569335938	1132.958251953125	154.8265380859375	394.7258911132812	955.26904296875	305.5938110351562	363.921875	931.4190673828125	230.0270385742188	411.7645263671875	1080.5380859375	163.2245788574219	368.7035522460938	768.3565673828125	352.1007385253906	347.9583740234375	844.8338012695312	349.6552734375	331.9728393554688	834.2066650390625	279.34375	653.8312377929688	1674.949340820312	316.4573364257812	605.134521484375	1684.134765625	537.7803344726562	525.2213745117188	1686.818725585938	476.8110656738281	731.385009765625	1670.772338867188	433.1625366210938	827.465087890625	988.1251220703125	396.1384887695312	509.0110473632812	993.87060546875	210.2213439941406	496.3602600097656	1043.4111328125	311.7124633789062	735.3587036132812	1028.173706054688	458.0133361816406	747.7103881835938	509.9051208496094	460.6174621582031	782.730224609375	651.9210205078125	452.0997619628906	772.0324096679688	26.77618789672852	399.360595703125	770.24609375	279.9517211914062	431.3054504394531	602.7078247070312	39.521728515625	544.4578247070312	606.866455078125	38.68613433837891	464.376953125	763.484375	37.4696044921875	319.1008911132812	462.2111206054688	513.320068359375	351.3226318359375	458.7409057617188	779.3519287109375	290.4327392578125	643.369384765625	111.3051223754883	131.2058715820312	493.60205078125	398.9765014648438	335.8026123046875	572.5985107421875	50.04641342163086	315.6472473144531	638.871337890625	61.36895370483398	295.5473327636719	567.7893676757812	67.21966552734375	199.7271270751953	720.474609375	138.6230163574219	115.295654296875	713.3526000976562	29.02656555175781	514.2417602539062	nan	nan	nan	
